<?xml version="1.0" encoding="utf-8"?>
<!-- Generator: Adobe Illustrator 24.0.1, SVG Export Plug-In . SVG Version: 6.00 Build 0)  -->
<svg version="1.1" id="Layer_1" xmlns="http://www.w3.org/2000/svg" xmlns:xlink="http://www.w3.org/1999/xlink" x="0px" y="0px"
	 viewBox="0 0 390 362" style="enable-background:new 0 0 390 362;" xml:space="preserve">
<style type="text/css">
	.st0{fill-rule:evenodd;clip-rule:evenodd;}
	.st1{fill-rule:evenodd;clip-rule:evenodd;fill:#FFFFFF;}
	.st2{fill:none;stroke:#FFFFFF;stroke-width:1.0001;stroke-miterlimit:2.6131;}
	.st3{fill:#FFFFFF;}
</style>
<g>
	<rect y="-0.2" class="st0" width="390" height="362"/>
	<path class="st1" d="M192,38.1c0,0,7.1,4.2,5.1,8.8c-1.9,4.7-6.9,10.7-13.8,16.1c-6.9,5.4-7.1,5.5-9.1,11.7
		c-2.1,6.1,2,8.8,1.7,12.3c-0.3,3.5,0,6.3-3.5,10c-3.5,3.8-1.2,5.8,0,7.3c1.2,1.5,1.9,2.1,1.9,2.1s-2.1,3,0,5.4
		c2.1,2.4,0.3,3.5,0.4,5.4c0.1,1.9,0.4,1,1.9,6.7s1.1,5.7,2.4,7.4c1.3,1.7,4.8,1.7,8.9,2s4.4,1.3,4.8,2.5c0.3,1.2,1.5,3.4-0.7,6.8
		c-2.2,3.5-6.2,8.7-9.3,14.6c-3.1,5.9-4.1,12.9-2.7,18.4c1.5,5.6,3.3,7.7,4.8,7.6c1.5-0.1,2.2-0.6,1.5-5.7c-0.8-5.1,2-9.6,7.4-14.9
		c5.4-5.3,13.4-11,16.9-17.5c3.5-6.5,6.8-14.7,2.4-25.4c-4.4-10.7-8.5-9.8-13.5-15.8c-5-6-6.8-13-2.7-20.6
		c4.1-7.6,9.5-7.1,13.7-14.6c4.3-7.5,4.2-12.7,0.2-19.3c-4-6.5-5.1-9.2-6.9-9.7c-1.9-0.5-0.8-0.2-2.1-0.5c-1.2-0.3-7.6-6-9.4-4.5
		C190.7,36.4,192,38.1,192,38.1"/>
	<path class="st1" d="M213.6,79.8c0,0,1.5,2,0.8,4.7c-0.8,2.7-3.7,3.7-4.9,5.1s-0.4,2.5-1.1,3.8c-0.7,1.3-1.8,6.4,0.1,9.4
		c1.9,3.1,2.2,5.7,10.8,13.4c8.5,7.7,4.2,17.7,0.4,24.1c-3.8,6.4-3.4,5.3-3,6.3c0.4,1,1.9,1,3.2-1.2c1.3-2.2,10.8-13.8,11.6-15.3
		c0.8-1.5,6.5-8.3,3-16c-3.4-7.6-8.2-7.7-11.5-10.4s-5.8-4-6.1-7.9c-0.3-3.9,0.6-6.2,2.1-8.4c1.5-2.2,0.3-3.4-1.1-5.4
		c-1.4-2-1.7-4.1-3.2-3.8C213.2,78.5,213.6,79.8,213.6,79.8"/>
	<path class="st1" d="M108.1,193.1c0,0-0.1-8.2,5.1-11.7c5.2-3.5,11.2,0.4,11.2,0.4s-8-1.9-11.8,2.9
		C108.8,189.5,108.1,193.1,108.1,193.1 M163.8,151.5c0,0-21.8,0.3-24.1,16.5c-2.4,16.2,29.8,20.7,48.9,17
		c19.1-3.8,19.8-2.9,43.1-12.3c23.3-9.5,19.8-8,16.8-1.8c-3,6.1-25.6,22.5-41.5,25c-15.9,2.6-44.6,4-50.4,2.8
		c-5.8-1.2-7.2-3.1-8.7-2.2c-1.5,0.9-4.7,6.2-4.5,12.1c0.2,5.9,0.9,8.9,1.6,11.3c0.8,2.4,1.7,6.7-0.8,6.3s-0.7-0.8-2.4-2.1
		c-1.7-1.3-2.8-2.9-2.5-5.3c0.3-2.4,0.4-4.3-0.7-5.5c-1.1-1.2-1.7-0.9-1.5-2.6c0.2-1.7,0.5-1-0.8-1.9c-1.3-0.9-0.4-2.3,0-2.6
		c0.4-0.3,1.5-4.5,1-5.4c-0.4-0.9-0.2-1.7-1.4-0.4c-1.1,1.3-2.9-1.1-0.6-3.7c2.4-2.7,0.7-3.4,0.1-4s-0.3-2.9-1-3.3
		c-0.7-0.5-3.7-1.2-3-2.6c0.7-1.4,1.8-1.3,2.9-0.6c1.1,0.7,5,3.2,6.2,3.5c1.2,0.2,1.8-1.3,2.4-1.1c0.6,0.1,1.4,0.9,1,1.8
		c-0.4,0.9,0.9,1.1,2.1,1.4c1.2,0.2,1.2-0.3,2.5-1.6c1.3-1.3,1.9-1.4,2.7-0.8c0.8,0.6-0.5,2.4-0.1,3c0.4,0.7,3.7,2.1,6.8,1.9
		c3.1-0.2,3.5-0.1,5.2,0.9c1.7,0.9,3.7,1.1,7.2,1c3.6-0.1,5-0.1,5.9,0.5c0.9,0.6,11,0.2,15.6-0.4c4.6-0.6,6-0.6,6-0.6
		s0.4-3.6,3.3-2.6c2.9,1,8.2-4.4,9.4-4.7c1.2-0.3-7.7-0.1-12.9,0.8c-5.1,0.9-5.4,1.4-7.4,1.8c-1.9,0.4-1.8-1.1-7-0.7
		c-5.2,0.3-4.6,1-6.3,0.7c-1.7-0.4-1.5-1.1-4.8,0c-3.3,1.2-3.2-0.9-3.2-0.9s-0.8-0.4-1.4-0.7c-0.6-0.3-9.9-0.3-17.4-4.9
		c-7.5-4.7-9.4-6.3-11.2-7.2c-1.8-0.9-2.6-4.9-2.9-6.4c-0.4-1.5,1.7-8.8,1.7-8.8s-7,4.4-8.2,14.2c-1.3,9.9,1.6,27.9,4.8,36.9
		c3.2,8.9,9.5,23.9,13.6,29.3c4.1,5.4,5,5.9,5,5.9s-0.8-2.9,0.2-3.4c1-0.4,2-0.1,2.4,2.2c0.4,2.2-0.7,2.7,0.8,3.5
		c1.5,0.8,0.9,1,1.6,2.5c0.7,1.6,1.5,4,4.5,5.3c3,1.3,5.7,3.8,1.8,5s-8.3-7.7-11-10.9c-2.7-3.2-7.7-10-7.7-10l-2.1-2.7
		c0,0-2,3.6-5.3,4.5c-3.4,0.9-4.8,2.7-6.3,4.3c-1.6,1.6-2.5-1.8-2.5-1.8s-0.6-1.2-0.4-2.6c0.2-1.3,0.4-1.9,2.6-3.6
		c2.1-1.8,4-5.4,1.3-10.3c-2.7-4.9-8.9-10.8-12.5-12.5c-3.6-1.7-3.7-1.1-5.5-3c-1.8-1.9-9.4-7.4-9.4-16.6c0-9.1,1.7-14.2,5.2-17.1
		c3.5-2.9,8-3.7,9.1-3.4c1.1,0.3,6.3,1,7.1,3.7c0.8,2.6-2.6-8.2,4.9-16.8c7.5-8.6,12.8-12.4,20.6-13.8
		C159.8,149.2,167.2,147.4,163.8,151.5z"/>
	<path class="st2" d="M231.6,76.1c24.1,8.6,45.3,24.9,59.8,47.2c14.5,22.3,13.8,33.6,13.8,33.6 M187.7,306.8
		c-46-1.6-88.9-29.9-106.7-75.6c-23.9-61.1,6.3-130.1,67.4-153.9c7-2.7,14.1-4.8,21.2-6.1"/>
	<path class="st1" d="M204.2,234.7c-1,0.3-2.1,0.6-3,0.8C202.2,235.3,203.2,235,204.2,234.7 M197.9,238.7L197.9,238.7L197.9,238.7
		L197.9,238.7L197.9,238.7z M217.1,221.2L217.1,221.2L217.1,221.2L217.1,221.2L217.1,221.2z M217.1,221.1c0,0,0,0.1,0,0.1
		C217.1,221.2,217.1,221.1,217.1,221.1L217.1,221.1z M211.5,217.9c-5.2,1.1-10.8,1.6-15.9,2.6c-2.8,0.6-5.6,1.1-8.4,1.8
		c9.4-1.3,21.8-3.2,24.1-4.2C211.3,218.1,211.4,218,211.5,217.9z M217.7,216.2c-0.1,0.1-0.3,0.1-0.4,0.2c-0.5,0.4-1,0.8-1.6,1.2
		C216.3,217.1,217,216.7,217.7,216.2z M213.1,209.5c-3.8,0.3-6.4,1.6-8.8,2.6c3.4,0.3,7.5,0.4,10.8,0.1c2.9-1.3,6-2.5,6.6-2.2
		c0.4,0.2,0.7,0.4,0.9,0.6c0.7-0.4,1.4-0.8,2.1-1.2c3.9-4.5,4.7-9.1,6.1-7.3c1.7,2.3-0.2,4.9-3.4,7.2c-1.6,2.1-3.6,3.7-5.7,4.9
		c-4.4,6-10.7,8-17,9.1c5.5-0.7,10.9-1.6,12.6-2.5c0.1-0.1,0.2-0.2,0.4-0.3l-0.5,0.4l0-0.1c0,0,0,0,0,0.1c-0.8,0.6-1.4,1.2-2,1.6
		c1.7-0.6,3-1,3.2-1.3c-0.2,0.5-1.5,1-3.6,1.6c-2.2,1.9-2.5,2.1-4.3,2.8c4.9-0.8,10.5-1.4,7.9,0.7c-0.9,0.8-2.8,1.6-5.1,2.2l1.5-0.1
		l0,0l0.1-0.1c1.1,0.4,0.9,0.7,0,0.9l0,0.1c-0.4,0.2-2.8,1.7-5.7,3.3c0.8,0.5,0.6,1.5-0.7,2.5c1.7-0.5,3.3-0.9,4.1-1.1
		c-0.2,0.4-0.2,0.4-0.2,0.5c0.2-0.1,0.5-0.2,0.7-0.3c0,0.1-0.2,0.2-0.7,0.4c0,0.1,0,0.2,0,0.4c-2.8,2.6-5.8,4.6-9.2,6
		c3.4-0.6,5.2-0.5-1,2.6c-3.8,1.9-6.3,2.7-10.4,3.7c1-0.3,13.1-4.4,13.8-6.3c-2.5,0.6-9.7,2.5-11.3,1.9l0.1-0.5
		c1.2-0.1,2.3-0.2,3.4-0.4c0.3-0.1,0.6-0.1,0.8-0.2c6.7-1.4,9.6-5.1,12.7-6.9c-1.4,0.5-3.7,1.2-6,1.7c-1.2,0.5-2.7,0.9-4.5,1.3
		l-3.2,0.3c0.1,0,0.1,0,0.2-0.1c-0.4,0-0.6,0-0.7-0.1c0-0.2,0.2-0.3,0.5-0.5c0,0,0,0-0.1,0l0.1,0c2.1-0.9,9.7-1,11-4.4
		c-0.3,0-0.6,0.1-1,0.1c-4.5,2.3-9.5,4.3-10.6,2.2c0.3-0.1,0.6-0.3,0.8-0.4c-0.1,0-0.2-0.1-0.2-0.2c0.1,0,0.3,0.1,0.4,0.1
		c4.9-2.3,8.2-3,9.9-2.7c1.5-0.9,3.1-1.9,4.5-2.8c-1.7,0.1-3.8,0.2-6,0.3c-2.6,0.3-5.2,0.4-7,0c-1.5,0-2.5,0-2.5,0
		c0.2-0.2,0.5-0.4,0.9-0.5c-0.3-0.2-0.6-0.4-0.9-0.6c1,0,1.9,0.1,2.7,0.1c4.7-0.9,13,0,17.2-3.1c-4.7-0.7-12.3,2.5-13.4,2.3
		c-3-0.7,4-3.1,9.3-4.9c-7.4,1.5-20,2.7-21.9,2.4c-1.9-0.3-1.3-0.7,0.6-1.2c-0.1-0.1-0.2-0.2-0.3-0.2c0.3,0,0.7,0,1.1,0
		c3.7-0.8,10.7-2.1,16.9-4.3c-8,1.9-31.9,5.3-33.4,4.9c-3.9-1.1,4.1-3.2,13.4-5.1c-1-0.1-2-0.2-2.9-0.4c-2.5,0.3-6.1,0.6-6.4-1.5
		c0.6-0.1,1.2-0.3,1.8-0.4c-0.2-0.2-0.4-0.4-0.5-0.6c0.7,0.1,1.5,0.2,2.4,0.3c2.6-0.3,4.9-0.3,7.1-0.2c6.8-0.5,14.6-1.9,18.2-2.8
		c-5,0.3-9.9-0.1-11.5-1.3l-0.1-1.2c0.5-0.6,13.9-4.5,15.6-4.6c0.6,0,1.1,0.5,1.1,1.1C214.1,209,213.7,209.5,213.1,209.5z"/>
	<path class="st1" d="M220.9,73.7c0,0,0.1,2.8-0.3,3.3c-0.4,0.5,0,1.3,1.3,1.4c1.2,0.1,3.2-0.5,2.6-3.8
		C223.9,71.3,221.7,71,220.9,73.7"/>
	<path class="st1" d="M212.8,157.3c-0.5,0.9-1.3,2.9-1,4.2c0.3,1.6,2,1.3,3.5-1.3C217.5,156,213.9,155,212.8,157.3"/>
	<path class="st3" d="M306.6,170.9c0.1,0,0.1,0,0.1-0.1l-0.3-2.1c-0.1-0.7-0.5-1.2-1.1-1.5c-0.6-0.3-1.4-0.4-2.3-0.3l-7.6,1.2
		c-0.9,0.1-1.6,0.5-2.1,1c-0.5,0.5-0.7,1.1-0.5,1.8l0.3,2.1c0,0.1,0,0.1,0.1,0.1L306.6,170.9z M308.3,172.1c0,0.2,0,0.2-0.2,0.3
		l-16.1,2.5c-0.2,0-0.2,0-0.3-0.2l-0.6-3.7c-0.2-1.2,0.1-2.3,0.8-3.1c0.7-0.9,1.7-1.4,3-1.6l7.8-1.2c1.3-0.2,2.5,0,3.4,0.6
		c0.9,0.6,1.5,1.5,1.6,2.7L308.3,172.1z M307.7,179.6c0-0.7-0.3-1.3-0.8-1.7c-0.5-0.4-1.2-0.6-1.9-0.6l-8.9,0.5
		c-0.8,0-1.4,0.3-1.9,0.8c-0.5,0.5-0.7,1.1-0.6,1.8c0,0.7,0.3,1.3,0.8,1.7c0.5,0.4,1.2,0.6,1.9,0.6l8.9-0.5c0.8,0,1.4-0.3,1.8-0.8
		C307.5,180.9,307.8,180.3,307.7,179.6z M309.2,179.5c0.1,1.2-0.3,2.2-1,3c-0.7,0.8-1.7,1.2-3,1.3l-8.8,0.5c-1.3,0.1-2.3-0.3-3.1-1
		c-0.8-0.7-1.2-1.7-1.3-2.9c-0.1-1.2,0.3-2.3,1-3.1c0.7-0.8,1.7-1.2,3-1.3l8.8-0.5c1.2-0.1,2.3,0.3,3.1,1
		C308.7,177.3,309.1,178.3,309.2,179.5z M307.9,190.4c0-0.7-0.2-1.3-0.7-1.8c-0.5-0.5-1.1-0.7-1.9-0.8l-8.9-0.4
		c-0.8,0-1.4,0.2-1.9,0.6c-0.5,0.4-0.8,1-0.8,1.8c0,0.7,0.2,1.3,0.7,1.8c0.5,0.5,1.1,0.7,1.9,0.8l8.9,0.4c0.8,0,1.4-0.2,1.9-0.6
		C307.6,191.7,307.9,191.1,307.9,190.4z M309.4,190.5c-0.1,1.2-0.5,2.2-1.3,2.9c-0.8,0.7-1.8,1.1-3.1,1l-8.8-0.4
		c-1.3-0.1-2.3-0.5-3-1.3c-0.7-0.8-1.1-1.8-1-3c0.1-1.2,0.5-2.2,1.3-3c0.8-0.7,1.8-1.1,3.1-1l8.8,0.4c1.2,0.1,2.2,0.5,3,1.3
		C309.1,188.2,309.4,189.2,309.4,190.5z M292.2,197c-0.1-0.1-0.1-0.2-0.1-0.3l0.2-1.2c0-0.2,0.1-0.2,0.3-0.2l16.2,2.3
		c0.2,0,0.2,0.1,0.2,0.3l-0.2,1.2c0,0.2-0.1,0.2-0.3,0.2l-12.7-1.8c0,0-0.1,0-0.1,0c0,0,0,0.1,0,0.1l4.8,3.2
		c0.1,0.1,0.1,0.2,0.1,0.3c0,0.1-0.1,0.2-0.2,0.2l-5.5,1.7c0,0-0.1,0.1-0.1,0.1c0,0,0,0,0.1,0l12.7,1.8c0.2,0,0.2,0.1,0.2,0.3
		l-0.2,1.2c0,0.2-0.1,0.2-0.3,0.2l-16.2-2.3c-0.2,0-0.2-0.1-0.2-0.3l0.2-1.2c0-0.1,0.1-0.2,0.2-0.3l5.9-1.9c0,0,0.1,0,0.1-0.1
		c0,0,0-0.1,0-0.1L292.2,197z M291.4,209.6c0.2,0,0.2,0.1,0.2,0.3l-1.6,5.3c0,0.1,0,0.1,0.1,0.1l5.7,1.7c0.1,0,0.1,0,0.1-0.1l1-3.4
		c0-0.2,0.1-0.2,0.3-0.2l1,0.3c0.2,0,0.2,0.1,0.2,0.3l-1,3.4c0,0.1,0,0.1,0.1,0.1l5.7,1.7c0.1,0,0.1,0,0.1-0.1l1.6-5.3
		c0-0.2,0.1-0.2,0.3-0.2l1,0.3c0.2,0,0.2,0.1,0.2,0.3l-2,6.8c0,0.2-0.1,0.2-0.3,0.2l-15.7-4.6c-0.2,0-0.2-0.1-0.2-0.3l2-6.8
		c0-0.2,0.1-0.2,0.3-0.2L291.4,209.6z M287,220.6c-0.2-0.1-0.2-0.2-0.1-0.3l0.4-1.2c0.1-0.2,0.2-0.2,0.3-0.1l15.4,5.3
		c0.2,0.1,0.2,0.2,0.1,0.3l-0.4,1.2c-0.1,0.2-0.2,0.2-0.3,0.1l-6.9-2.4c-0.1,0-0.1,0-0.1,0.1l-1.4,4c0,0.1,0,0.1,0.1,0.1l6.9,2.4
		c0.2,0.1,0.2,0.2,0.1,0.3l-0.4,1.2c-0.1,0.2-0.2,0.2-0.3,0.1l-15.4-5.3c-0.2-0.1-0.2-0.2-0.1-0.3l0.4-1.2c0.1-0.2,0.2-0.2,0.3-0.1
		l6.9,2.4c0.1,0,0.1,0,0.1-0.1l1.4-4c0-0.1,0-0.1-0.1-0.1L287,220.6z M284.1,227.4c0.1-0.1,0.2-0.2,0.3-0.1l0.9,0.4
		c0.1,0.1,0.2,0.2,0.1,0.3l-1.3,2.9c0,0.1,0,0.1,0,0.1l13.6,6.2c0.1,0.1,0.2,0.2,0.1,0.3l-0.5,1.1c-0.1,0.1-0.2,0.2-0.3,0.1
		l-13.6-6.2c-0.1,0-0.1,0-0.1,0l-1.2,2.7c-0.1,0.1-0.2,0.2-0.3,0.1l-0.9-0.4c-0.1-0.1-0.2-0.2-0.1-0.3L284.1,227.4z M279.9,238.8
		c0.1,0.1,0.2,0.2,0.1,0.3l-3,4.6c0,0.1,0,0.1,0,0.1l5,3.2c0.1,0,0.1,0,0.1,0l1.9-2.9c0.1-0.1,0.2-0.2,0.3-0.1l0.9,0.6
		c0.1,0.1,0.2,0.2,0.1,0.3l-1.9,2.9c0,0.1,0,0.1,0,0.1l6.2,4c0.1,0.1,0.2,0.2,0.1,0.3l-0.7,1c-0.1,0.1-0.2,0.2-0.3,0.1l-13.7-8.8
		c-0.1-0.1-0.2-0.2-0.1-0.3l3.8-6c0.1-0.1,0.2-0.2,0.3-0.1L279.9,238.8z M283.7,258.6c0.5-0.6,0.6-1.2,0.5-1.9
		c-0.1-0.7-0.5-1.2-1.1-1.7l-7-5.6c-0.6-0.5-1.3-0.7-1.9-0.6c-0.7,0.1-1.2,0.4-1.7,0.9c-0.4,0.6-0.6,1.2-0.5,1.8
		c0.1,0.7,0.5,1.2,1.1,1.7l7,5.5c0.6,0.5,1.2,0.7,1.9,0.6C282.7,259.5,283.2,259.2,283.7,258.6z M284.8,259.5
		c-0.8,1-1.7,1.5-2.8,1.6c-1.1,0.1-2.1-0.2-3.1-1l-6.9-5.4c-1-0.8-1.6-1.7-1.7-2.8c-0.1-1.1,0.2-2.1,0.9-3.1c0.8-1,1.7-1.5,2.8-1.7
		c1.1-0.1,2.1,0.2,3.1,1l6.9,5.4c1,0.8,1.5,1.7,1.7,2.8C285.9,257.5,285.6,258.5,284.8,259.5z M266.3,257.2c0.1,0.1,0.1,0.2,0,0.3
		l-3.9,4c0,0,0,0.1,0,0.1l4.3,4.1c0,0,0.1,0,0.1,0l2.4-2.5c0.1-0.1,0.2-0.1,0.3,0l0.7,0.7c0.1,0.1,0.1,0.2,0,0.3l-2.4,2.5
		c0,0,0,0.1,0,0.1l4.3,4.1c0,0,0.1,0,0.1,0l3.9-4c0.1-0.1,0.2-0.1,0.3,0l0.7,0.7c0.1,0.1,0.1,0.2,0,0.3l-4.9,5.1
		c-0.1,0.1-0.2,0.1-0.3,0L260.3,262c-0.1-0.1-0.1-0.2,0-0.3l4.9-5.1c0.1-0.1,0.2-0.1,0.3,0L266.3,257.2z M259.2,262.5
		c0.1-0.1,0.2-0.1,0.3,0l0.7,0.8c0.1,0.1,0.1,0.2,0,0.3l-2.4,2.1c0,0-0.1,0.1,0,0.1l9.7,11.4c0.1,0.1,0.1,0.2,0,0.3l-0.9,0.8
		c-0.1,0.1-0.2,0.1-0.3,0l-9.7-11.4c0,0-0.1-0.1-0.1,0l-2.3,1.9c-0.1,0.1-0.2,0.1-0.3,0L253,268c-0.1-0.1-0.1-0.2,0-0.3L259.2,262.5
		z M259.5,284c-1,0.7-2,0.9-3,0.7c-1.1-0.2-1.9-0.9-2.7-1.9l-0.3-0.5c-0.1-0.1-0.1-0.2,0.1-0.3l1-0.7c0.1-0.1,0.2-0.1,0.3,0.1
		l0.3,0.4c0.5,0.7,1,1.1,1.7,1.3c0.7,0.2,1.3,0.1,1.8-0.3c0.6-0.4,0.9-0.9,1-1.6c0.1-0.7-0.1-1.3-0.6-2c-0.3-0.4-0.7-0.8-1.1-1
		c-0.4-0.2-0.8-0.3-1.3-0.4c-0.5,0-1.2-0.1-2.2-0.1c-1,0-1.8-0.1-2.4-0.2c-0.6-0.1-1.2-0.3-1.8-0.6c-0.6-0.3-1.1-0.8-1.6-1.5
		c-0.7-1-1-2-0.8-3.1c0.2-1,0.7-1.8,1.7-2.5c1-0.7,2-0.9,3.1-0.7c1,0.2,1.9,0.9,2.7,2l0.3,0.5c0.1,0.1,0.1,0.2-0.1,0.3l-1,0.7
		c-0.1,0.1-0.2,0.1-0.3-0.1l-0.4-0.5c-0.5-0.7-1-1.1-1.7-1.3c-0.6-0.2-1.3-0.1-1.8,0.3c-0.5,0.4-0.8,0.9-0.9,1.5
		c-0.1,0.6,0.1,1.3,0.6,1.9c0.3,0.4,0.6,0.7,1,0.9c0.4,0.2,0.8,0.3,1.3,0.4c0.5,0.1,1.2,0.1,2.1,0.2c1.2,0,2.1,0.1,2.7,0.2
		c0.6,0.1,1.2,0.3,1.7,0.6c0.5,0.3,1,0.7,1.4,1.3c0.7,1.1,1,2.2,0.9,3.2C261,282.5,260.4,283.3,259.5,284z M247.2,286
		c0,0.1,0.1,0.1,0.1,0l3.2-2c0,0,0-0.1,0-0.1l-6.6-7c0,0-0.1,0-0.1,0c0,0,0,0,0,0.1L247.2,286z M254.1,287.4c-0.1,0.1-0.2,0.1-0.3,0
		l-2.1-2.2c0,0,0,0-0.1,0c0,0-0.1,0-0.1,0l-3.7,2.3c0,0,0,0-0.1,0.1c0,0,0,0.1,0,0.1l1.1,2.8c0.1,0.1,0,0.2-0.1,0.3l-1,0.6
		c-0.1,0-0.1,0.1-0.2,0c-0.1,0-0.1-0.1-0.1-0.1l-5.5-15.8c0-0.1,0-0.2,0.1-0.3l1.2-0.8c0.1-0.1,0.2-0.1,0.3,0l11.7,11.9l0,0
		c0.1,0.1,0.1,0.2-0.1,0.3L254.1,287.4z M239.6,276.5c0.1-0.1,0.3,0,0.3,0.1l0.4,0.9c0.1,0.1,0,0.3-0.1,0.3l-2.8,1.4
		c-0.1,0-0.1,0.1,0,0.1l6.6,13.5c0.1,0.1,0,0.3-0.1,0.3l-1.1,0.5c-0.1,0.1-0.3,0-0.3-0.1l-6.6-13.5c0-0.1-0.1-0.1-0.1,0l-2.7,1.3
		c-0.1,0.1-0.3,0-0.3-0.1l-0.4-0.9c-0.1-0.1,0-0.3,0.1-0.3L239.6,276.5z"/>
	<path class="st2" d="M187.7,306.8c0,0,30.6,0,47.5-14.6"/>
	<path class="st0" d="M127.3,193c0,0-9.1-7.9-12.4,6.8c-3.3,14.7,21.2,24.4,21.2,24.4S130,213.2,127.3,193"/>
</g>
</svg>
