<?xml version="1.0" encoding="utf-8"?>
<!-- Generator: Adobe Illustrator 24.0.1, SVG Export Plug-In . SVG Version: 6.00 Build 0)  -->
<svg version="1.1" id="Layer_1" xmlns="http://www.w3.org/2000/svg" xmlns:xlink="http://www.w3.org/1999/xlink" x="0px" y="0px"
	 viewBox="0 0 390 362" style="enable-background:new 0 0 390 362;" xml:space="preserve">
<style type="text/css">
	.st0{fill-rule:evenodd;clip-rule:evenodd;}
	.st1{fill:none;stroke:#000000;stroke-width:1.0001;stroke-miterlimit:2.6131;}
</style>
<path class="st0" d="M189.9,48.2c0,0,7.1,4.2,5.1,8.8c-1.9,4.7-6.9,10.7-13.8,16.1c-6.9,5.4-7.1,5.5-9.1,11.7
	c-2.1,6.1,2,8.8,1.6,12.3c-0.3,3.4,0,6.3-3.5,10c-3.5,3.8-1.2,5.8,0,7.4c1.2,1.5,1.9,2.1,1.9,2.1s-2.1,3,0,5.4s0.3,3.5,0.4,5.4
	c0.1,1.9,0.4,1,1.9,6.7c1.6,5.8,1.1,5.7,2.4,7.4c1.3,1.7,4.8,1.7,8.9,2c4.1,0.3,4.4,1.3,4.8,2.5c0.3,1.2,1.5,3.4-0.7,6.8
	c-2.2,3.5-6.2,8.7-9.3,14.6c-3.1,5.9-4.1,12.9-2.7,18.4c1.5,5.5,3.3,7.7,4.8,7.6c1.5-0.1,2.2-0.6,1.5-5.7c-0.8-5.1,2-9.6,7.4-14.9
	c5.4-5.3,13.4-10.9,16.9-17.5s6.8-14.7,2.4-25.4c-4.4-10.7-8.5-9.8-13.5-15.8s-6.8-13-2.7-20.6s9.5-7.1,13.7-14.6
	c4.3-7.5,4.2-12.7,0.2-19.3c-4-6.5-5.1-9.2-6.9-9.7c-1.9-0.5-0.8-0.2-2.1-0.5c-1.2-0.3-7.6-6-9.4-4.5S189.9,48.2,189.9,48.2"/>
<path class="st0" d="M211.5,89.9c0,0,1.5,2,0.8,4.7c-0.8,2.7-3.7,3.7-4.9,5.1s-0.4,2.5-1,3.8c-0.7,1.3-1.8,6.4,0.1,9.4
	c1.9,3.1,2.2,5.7,10.8,13.4c8.5,7.7,4.2,17.7,0.4,24.1c-3.8,6.4-3.4,5.3-3,6.3s2,1,3.2-1.2c1.3-2.2,10.8-13.8,11.6-15.3
	s6.5-8.3,3-16c-3.4-7.6-8.2-7.7-11.5-10.4c-3.4-2.7-5.8-4-6.1-7.9s0.6-6.2,2.1-8.4c1.5-2.2,0.3-3.4-1.1-5.4c-1.4-2-1.7-4.1-3.2-3.8
	C211.1,88.6,211.5,89.9,211.5,89.9"/>
<path class="st0" d="M229.6,182.8c-23.3,9.5-24,8.6-43.1,12.3c-19.1,3.7-51.3-0.8-48.9-17c2.3-16.2,24.1-16.5,24.1-16.5
	c3.3-4.1-4-2.2-11.5-0.4c-7.8,1.4-13.1,5.2-20.6,13.8c-7.5,8.6-4.1,19.4-4.9,16.8c-0.8-2.7-6.1-3.4-7.1-3.7
	c-1.1-0.3-5.6,0.5-9.1,3.4c-3.5,2.9-5.2,8-5.2,17.1c0,9.2,7.6,14.7,9.4,16.6c1.8,1.9,2,1.3,5.6,3s9.8,7.6,12.5,12.5
	c2.7,4.9,0.8,8.5-1.3,10.3c-2.2,1.7-2.4,2.3-2.6,3.6c-0.2,1.3,0.4,2.5,0.4,2.5s1,3.4,2.6,1.8c1.5-1.6,2.9-3.4,6.3-4.3
	c3.3-0.9,5.3-4.5,5.3-4.5l2.1,2.7c0,0,5,6.8,7.7,10s7.1,12.1,11,10.9c3.9-1.2,1.2-3.7-1.8-5s-3.8-3.7-4.5-5.3
	c-0.7-1.5-0.1-1.7-1.6-2.5s-0.4-1.3-0.8-3.5c-0.4-2.3-1.4-2.6-2.4-2.2c-1,0.5-0.2,3.4-0.2,3.4s-0.9-0.5-5-5.9
	c-4.1-5.4-10.4-20.4-13.6-29.3c-3.2-9-6.1-27-4.8-36.9c1.2-9.8,8.2-14.2,8.2-14.2s-2.1,7.3-1.7,8.8c0.3,1.5,1.1,5.5,2.9,6.4
	c1.8,0.9,3.7,2.5,11.2,7.2c7.5,4.6,16.8,4.6,17.4,4.9c0.6,0.3,1.4,0.7,1.4,0.7s-0.1,2.1,3.2,0.9c3.3-1.1,3.1-0.4,4.8,0
	c1.7,0.3,1.1-0.4,6.3-0.7c5.2-0.4,5.1,1.1,7,0.7c1.9-0.4,2.2-0.9,7.3-1.8c5.2-0.9,14.1-1.1,12.9-0.8c-1.2,0.3-6.5,5.7-9.4,4.7
	c-2.9-1-3.3,2.6-3.3,2.6s-1.4,0-6,0.6c-4.6,0.6-14.7,1-15.6,0.4c-0.9-0.6-2.3-0.6-5.9-0.5c-3.5,0.1-5.5-0.1-7.2-1
	c-1.7-1-2.1-1.1-5.2-0.9c-3.1,0.2-6.4-1.2-6.8-1.9c-0.4-0.6,0.9-2.4,0.1-3c-0.8-0.6-1.4-0.5-2.7,0.8c-1.3,1.3-1.3,1.8-2.5,1.6
	c-1.2-0.3-2.5-0.5-2.1-1.4c0.4-0.9-0.4-1.7-1-1.8c-0.6-0.2-1.2,1.3-2.4,1.1c-1.2-0.3-5.1-2.8-6.2-3.5c-1.1-0.7-2.2-0.8-2.9,0.6
	c-0.7,1.4,2.3,2.1,3,2.6c0.7,0.4,0.4,2.7,1,3.3c0.6,0.6,2.2,1.4-0.1,4s-0.5,5,0.6,3.7c1.2-1.3,1-0.5,1.4,0.4
	c0.4,0.9-0.7,5.1-1.1,5.4c-0.4,0.3-1.3,1.7,0,2.6c1.3,0.9,0.9,0.2,0.8,1.9c-0.2,1.7,0.4,1.4,1.5,2.6c1.1,1.2,1,3.1,0.7,5.5
	c-0.3,2.4,0.8,4,2.5,5.3c1.7,1.3,0,1.7,2.4,2.1c2.4,0.4,1.6-3.9,0.8-6.3c-0.8-2.4-1.5-5.4-1.7-11.3c-0.2-5.9,3-11.2,4.5-12.1
	c1.5-0.9,2.9,1,8.7,2.2c5.8,1.2,34.5-0.3,50.4-2.8c16-2.6,38.6-18.9,41.6-25.1S252.9,173.3,229.6,182.8z M110.4,194.8
	c-3.7,4.8-4.5,8.4-4.5,8.4s-0.1-8.2,5.1-11.7s11.2,0.4,11.2,0.4S114.2,190,110.4,194.8z M133.9,234.3c0,0-24.5-9.7-21.2-24.4
	c3.3-14.7,12.4-6.8,12.4-6.8C127.9,223.3,133.9,234.3,133.9,234.3z"/>
<path class="st1" d="M229.5,86.2c24.1,8.6,45.3,24.9,59.8,47.2s13.8,33.6,13.8,33.6 M185.6,317c-46-1.6-88.9-29.9-106.7-75.6
	c-23.9-61.1,6.3-130,67.4-153.9c7-2.7,14.1-4.8,21.2-6.1"/>
<path class="st0" d="M202,244.8c-1,0.3-2.1,0.6-3,0.8C200,245.4,201,245.2,202,244.8 M195.8,248.8L195.8,248.8L195.8,248.8
	L195.8,248.8L195.8,248.8z M215,231.4L215,231.4L215,231.4L215,231.4L215,231.4z M215,231.2v0.1C215,231.3,215,231.3,215,231.2
	L215,231.2z M209.4,228.1c-5.2,1.1-10.8,1.6-15.9,2.6c-2.8,0.6-5.6,1.1-8.4,1.8c9.4-1.3,21.8-3.2,24.1-4.2
	C209.2,228.2,209.2,228.1,209.4,228.1z M215.5,226.3c-0.1,0.1-0.3,0.1-0.4,0.2c-0.5,0.4-1,0.8-1.6,1.2
	C214.2,227.2,214.9,226.8,215.5,226.3z M210.9,219.6c-3.8,0.3-6.4,1.6-8.8,2.6c3.4,0.3,7.5,0.4,10.8,0.1c2.9-1.3,6-2.5,6.6-2.2
	c0.4,0.2,0.7,0.4,0.9,0.6c0.7-0.4,1.4-0.8,2.1-1.2c3.9-4.5,4.7-9.1,6.1-7.3c1.7,2.3-0.2,4.9-3.4,7.2c-1.6,2.1-3.6,3.7-5.7,4.9
	c-4.4,6-10.7,8-17,9.1c5.5-0.7,10.9-1.6,12.6-2.5c0.1-0.1,0.2-0.2,0.4-0.3L215,231v-0.1c0,0,0,0,0,0.1c-0.8,0.6-1.4,1.2-2,1.6
	c1.7-0.6,3-1,3.2-1.3c-0.2,0.5-1.5,1-3.6,1.6c-2.2,1.9-2.5,2.1-4.3,2.8c4.9-0.8,10.5-1.4,7.9,0.7c-0.9,0.8-2.8,1.6-5.1,2.2l1.5-0.1
	l0,0l0.1-0.1c1.1,0.4,0.9,0.7,0,0.9v0.1c-0.4,0.2-2.8,1.7-5.7,3.3c0.8,0.5,0.6,1.5-0.7,2.5c1.7-0.5,3.3-0.9,4.1-1.1
	c-0.2,0.4-0.2,0.4-0.2,0.5c0.2-0.1,0.5-0.2,0.7-0.3c0,0.1-0.2,0.2-0.7,0.4c0,0.1,0,0.2,0,0.4c-2.8,2.6-5.8,4.6-9.2,6
	c3.4-0.6,5.2-0.5-1,2.6c-3.8,1.9-6.3,2.7-10.4,3.7c1-0.3,13.1-4.4,13.8-6.3c-2.5,0.6-9.7,2.5-11.3,1.9l0.1-0.5
	c1.2-0.1,2.3-0.2,3.4-0.4c0.3-0.1,0.6-0.1,0.8-0.2c6.7-1.4,9.6-5.1,12.7-6.9c-1.4,0.5-3.7,1.2-6,1.7c-1.2,0.5-2.7,0.9-4.5,1.3
	l-3.2,0.3c0.1,0,0.1,0,0.2-0.1c-0.4,0-0.6,0-0.7-0.1c0-0.2,0.2-0.3,0.5-0.5c0,0,0,0-0.1,0h0.1c2.1-0.9,9.7-1,11-4.4
	c-0.3,0-0.6,0.1-1,0.1c-4.5,2.3-9.5,4.3-10.6,2.2c0.3-0.1,0.6-0.3,0.8-0.4c-0.1,0-0.2-0.1-0.2-0.2c0.1,0,0.3,0.1,0.4,0.1
	c4.9-2.3,8.2-3,9.9-2.7c1.5-0.9,3.1-1.9,4.5-2.8c-1.7,0.1-3.8,0.2-6,0.3c-2.6,0.3-5.2,0.4-7,0c-1.5,0-2.5,0-2.5,0
	c0.2-0.2,0.5-0.4,0.9-0.5c-0.3-0.2-0.6-0.4-0.9-0.6c1,0,1.9,0.1,2.7,0.1c4.7-0.9,13,0,17.2-3.1c-4.7-0.7-12.3,2.5-13.4,2.3
	c-3-0.7,4-3.1,9.3-4.9c-7.4,1.5-20,2.7-21.9,2.4s-1.3-0.7,0.6-1.2c-0.1-0.1-0.2-0.2-0.3-0.2c0.3,0,0.7,0,1.1,0
	c3.7-0.8,10.7-2.1,16.9-4.3c-8,1.9-31.9,5.3-33.4,4.9c-3.9-1.1,4.1-3.2,13.4-5.1c-1-0.1-2-0.2-2.9-0.4c-2.5,0.3-6.1,0.6-6.4-1.5
	c0.6-0.1,1.2-0.3,1.8-0.4c-0.2-0.2-0.4-0.4-0.5-0.6c0.7,0.1,1.5,0.2,2.4,0.3c2.6-0.3,4.9-0.3,7.1-0.2c6.8-0.5,14.6-1.9,18.2-2.8
	c-5,0.3-9.9-0.1-11.5-1.3l-0.1-1.2c0.5-0.6,13.9-4.5,15.6-4.6c0.6,0,1.1,0.5,1.1,1.1C212,219.2,211.5,219.6,210.9,219.6z"/>
<path class="st0" d="M218.7,83.8c0,0,0.1,2.8-0.3,3.3c-0.4,0.5,0,1.3,1.3,1.4c1.2,0.1,3.2-0.5,2.6-3.8
	C221.8,81.5,219.6,81.2,218.7,83.8"/>
<path class="st0" d="M210.7,167.5c-0.5,0.9-1.3,2.9-1,4.2c0.3,1.7,2,1.3,3.5-1.3C215.4,166.2,211.8,165.1,210.7,167.5"/>
<path d="M304.4,181c0.1,0,0.1,0,0.1-0.1l-0.3-2.1c-0.1-0.7-0.5-1.2-1.1-1.5s-1.4-0.4-2.3-0.3l-7.6,1.2c-0.9,0.1-1.6,0.5-2.1,1
	s-0.7,1.1-0.5,1.8l0.3,2.1c0,0.1,0,0.1,0.1,0.1L304.4,181z M306.2,182.2c0,0.2,0,0.2-0.2,0.3l-16.1,2.5c-0.2,0-0.2,0-0.3-0.2
	l-0.6-3.7c-0.2-1.2,0.1-2.3,0.8-3.1c0.7-0.9,1.7-1.4,3-1.6l7.8-1.2c1.3-0.2,2.5,0,3.4,0.6s1.5,1.5,1.6,2.7L306.2,182.2z
	 M305.6,189.7c0-0.7-0.3-1.3-0.8-1.7s-1.2-0.6-1.9-0.6l-8.9,0.5c-0.8,0-1.4,0.3-1.9,0.8s-0.7,1.1-0.6,1.8c0,0.7,0.3,1.3,0.8,1.7
	s1.2,0.6,1.9,0.6l8.9-0.5c0.8,0,1.4-0.3,1.8-0.8C305.4,191.1,305.6,190.5,305.6,189.7z M307.1,189.7c0.1,1.2-0.3,2.2-1,3
	s-1.7,1.2-3,1.3l-8.8,0.5c-1.3,0.1-2.3-0.3-3.1-1c-0.8-0.7-1.2-1.7-1.3-2.9c-0.1-1.2,0.3-2.3,1-3.1s1.7-1.2,3-1.3l8.8-0.5
	c1.2-0.1,2.3,0.3,3.1,1C306.6,187.4,307,188.4,307.1,189.7z M305.8,200.6c0-0.7-0.2-1.3-0.7-1.8s-1.1-0.7-1.9-0.8l-8.9-0.4
	c-0.8,0-1.4,0.2-1.9,0.6c-0.5,0.4-0.8,1-0.8,1.8c0,0.7,0.2,1.3,0.7,1.8s1.1,0.7,1.9,0.8l8.9,0.4c0.8,0,1.4-0.2,1.9-0.6
	C305.5,201.8,305.8,201.3,305.8,200.6z M307.3,200.6c-0.1,1.2-0.5,2.2-1.3,2.9s-1.8,1.1-3.1,1l-8.8-0.4c-1.3-0.1-2.3-0.5-3-1.3
	s-1.1-1.8-1-3s0.5-2.2,1.3-3c0.8-0.7,1.8-1.1,3.1-1l8.8,0.4c1.2,0.1,2.2,0.5,3,1.3C307,198.3,307.3,199.4,307.3,200.6z M290.1,207.2
	c-0.1-0.1-0.1-0.2-0.1-0.3l0.2-1.2c0-0.2,0.1-0.2,0.3-0.2l16.2,2.3c0.2,0,0.2,0.1,0.2,0.3l-0.2,1.2c0,0.2-0.1,0.2-0.3,0.2l-12.7-1.8
	h-0.1v0.1l4.8,3.2c0.1,0.1,0.1,0.2,0.1,0.3s-0.1,0.2-0.2,0.2l-5.5,1.7l-0.1,0.1c0,0,0,0,0.1,0l12.7,1.8c0.2,0,0.2,0.1,0.2,0.3
	l-0.2,1.2c0,0.2-0.1,0.2-0.3,0.2l-16.2-2.3c-0.2,0-0.2-0.1-0.2-0.3l0.2-1.2c0-0.1,0.1-0.2,0.2-0.3l5.9-1.9c0,0,0.1,0,0.1-0.1v-0.1
	L290.1,207.2z M289.3,219.8c0.2,0,0.2,0.1,0.2,0.3l-1.6,5.3c0,0.1,0,0.1,0.1,0.1l5.7,1.7c0.1,0,0.1,0,0.1-0.1l1-3.4
	c0-0.2,0.1-0.2,0.3-0.2l1,0.3c0.2,0,0.2,0.1,0.2,0.3l-1,3.4c0,0.1,0,0.1,0.1,0.1l5.7,1.7c0.1,0,0.1,0,0.1-0.1l1.6-5.3
	c0-0.2,0.1-0.2,0.3-0.2l1,0.3c0.2,0,0.2,0.1,0.2,0.3l-2,6.8c0,0.2-0.1,0.2-0.3,0.2l-15.7-4.6c-0.2,0-0.2-0.1-0.2-0.3l2-6.8
	c0-0.2,0.1-0.2,0.3-0.2L289.3,219.8z M284.9,230.8c-0.2-0.1-0.2-0.2-0.1-0.3l0.4-1.2c0.1-0.2,0.2-0.2,0.3-0.1l15.4,5.3
	c0.2,0.1,0.2,0.2,0.1,0.3l-0.4,1.2c-0.1,0.2-0.2,0.2-0.3,0.1l-6.9-2.4c-0.1,0-0.1,0-0.1,0.1l-1.4,4c0,0.1,0,0.1,0.1,0.1l6.9,2.4
	c0.2,0.1,0.2,0.2,0.1,0.3l-0.4,1.2c-0.1,0.2-0.2,0.2-0.3,0.1l-15.4-5.3c-0.2-0.1-0.2-0.2-0.1-0.3l0.4-1.2c0.1-0.2,0.2-0.2,0.3-0.1
	l6.9,2.4c0.1,0,0.1,0,0.1-0.1l1.4-4c0-0.1,0-0.1-0.1-0.1L284.9,230.8z M282,237.5c0.1-0.1,0.2-0.2,0.3-0.1l0.9,0.4
	c0.1,0.1,0.2,0.2,0.1,0.3L282,241c0,0.1,0,0.1,0,0.1l13.6,6.2c0.1,0.1,0.2,0.2,0.1,0.3l-0.5,1.1c-0.1,0.1-0.2,0.2-0.3,0.1l-13.6-6.2
	c-0.1,0-0.1,0-0.1,0l-1.2,2.7c-0.1,0.1-0.2,0.2-0.3,0.1l-0.9-0.4c-0.1-0.1-0.2-0.2-0.1-0.3L282,237.5z M277.8,248.9
	c0.1,0.1,0.2,0.2,0.1,0.3l-3,4.6c0,0.1,0,0.1,0,0.1l5,3.2c0.1,0,0.1,0,0.1,0l1.9-2.9c0.1-0.1,0.2-0.2,0.3-0.1l0.9,0.6
	c0.1,0.1,0.2,0.2,0.1,0.3l-1.9,2.9c0,0.1,0,0.1,0,0.1l6.2,4c0.1,0.1,0.2,0.2,0.1,0.3l-0.7,1c-0.1,0.1-0.2,0.2-0.3,0.1l-13.7-8.8
	c-0.1-0.1-0.2-0.2-0.1-0.3l3.8-6c0.1-0.1,0.2-0.2,0.3-0.1L277.8,248.9z M281.6,268.7c0.5-0.6,0.6-1.2,0.5-1.9
	c-0.1-0.7-0.5-1.2-1.1-1.7l-7-5.6c-0.6-0.5-1.3-0.7-1.9-0.6c-0.7,0.1-1.2,0.4-1.7,0.9c-0.4,0.6-0.6,1.2-0.5,1.8
	c0.1,0.7,0.5,1.2,1.1,1.7l7,5.5c0.6,0.5,1.2,0.7,1.9,0.6C280.6,269.6,281.1,269.3,281.6,268.7z M282.7,269.6c-0.8,1-1.7,1.5-2.8,1.6
	c-1.1,0.1-2.1-0.2-3.1-1l-6.9-5.4c-1-0.8-1.6-1.7-1.7-2.8c-0.1-1.1,0.2-2.1,0.9-3.1c0.8-1,1.7-1.5,2.8-1.7c1.1-0.1,2.1,0.2,3.1,1
	l6.9,5.4c1,0.8,1.5,1.7,1.7,2.8C283.8,267.6,283.5,268.7,282.7,269.6z M264.1,267.3c0.1,0.1,0.1,0.2,0,0.3l-3.9,4v0.1l4.3,4.1h0.1
	l2.4-2.5c0.1-0.1,0.2-0.1,0.3,0l0.7,0.7c0.1,0.1,0.1,0.2,0,0.3l-2.4,2.5v0.1l4.3,4.1h0.1l3.9-4c0.1-0.1,0.2-0.1,0.3,0l0.7,0.7
	c0.1,0.1,0.1,0.2,0,0.3l-4.9,5.1c-0.1,0.1-0.2,0.1-0.3,0l-11.8-11.3c-0.1-0.1-0.1-0.2,0-0.3l4.9-5.1c0.1-0.1,0.2-0.1,0.3,0
	L264.1,267.3z M257.1,272.6c0.1-0.1,0.2-0.1,0.3,0l0.7,0.8c0.1,0.1,0.1,0.2,0,0.3l-2.4,2.1c0,0-0.1,0.1,0,0.1l9.7,11.4
	c0.1,0.1,0.1,0.2,0,0.3l-0.9,0.8c-0.1,0.1-0.2,0.1-0.3,0l-9.7-11.4c0,0-0.1-0.1-0.1,0l-2.3,1.9c-0.1,0.1-0.2,0.1-0.3,0l-0.7-0.8
	c-0.1-0.1-0.1-0.2,0-0.3L257.1,272.6z M257.3,294.1c-1,0.7-2,0.9-3,0.7c-1.1-0.2-1.9-0.9-2.7-1.9l-0.3-0.5c-0.1-0.1-0.1-0.2,0.1-0.3
	l1-0.7c0.1-0.1,0.2-0.1,0.3,0.1l0.3,0.4c0.5,0.7,1,1.1,1.7,1.3c0.7,0.2,1.3,0.1,1.8-0.3c0.6-0.4,0.9-0.9,1-1.6s-0.1-1.3-0.6-2
	c-0.3-0.4-0.7-0.8-1.1-1s-0.8-0.3-1.3-0.4c-0.5,0-1.2-0.1-2.2-0.1s-1.8-0.1-2.4-0.2c-0.6-0.1-1.2-0.3-1.8-0.6
	c-0.6-0.3-1.1-0.8-1.6-1.5c-0.7-1-1-2-0.8-3.1c0.2-1,0.7-1.8,1.7-2.5s2-0.9,3.1-0.7c1,0.2,1.9,0.9,2.7,2l0.3,0.5
	c0.1,0.1,0.1,0.2-0.1,0.3l-1,0.7c-0.1,0.1-0.2,0.1-0.3-0.1l-0.4-0.5c-0.5-0.7-1-1.1-1.7-1.3c-0.6-0.2-1.3-0.1-1.8,0.3
	s-0.8,0.9-0.9,1.5c-0.1,0.6,0.1,1.3,0.6,1.9c0.3,0.4,0.6,0.7,1,0.9c0.4,0.2,0.8,0.3,1.3,0.4s1.2,0.1,2.1,0.2c1.2,0,2.1,0.1,2.7,0.2
	c0.6,0.1,1.2,0.3,1.7,0.6c0.5,0.3,1,0.7,1.4,1.3c0.7,1.1,1,2.2,0.9,3.2C258.9,292.6,258.3,293.5,257.3,294.1z M245.1,296.1
	c0,0.1,0.1,0.1,0.1,0l3.2-2V294l-6.6-7h-0.1c0,0,0,0,0,0.1L245.1,296.1z M252,297.5c-0.1,0.1-0.2,0.1-0.3,0l-2.1-2.2c0,0,0,0-0.1,0
	h-0.1l-3.7,2.3c0,0,0,0-0.1,0.1v0.1l1.1,2.8c0.1,0.1,0,0.2-0.1,0.3l-1,0.6c-0.1,0-0.1,0.1-0.2,0c-0.1,0-0.1-0.1-0.1-0.1l-5.5-15.8
	c0-0.1,0-0.2,0.1-0.3l1.2-0.8c0.1-0.1,0.2-0.1,0.3,0l11.7,11.9l0,0c0.1,0.1,0.1,0.2-0.1,0.3L252,297.5z M237.5,286.7
	c0.1-0.1,0.3,0,0.3,0.1l0.4,0.9c0.1,0.1,0,0.3-0.1,0.3l-2.8,1.4c-0.1,0-0.1,0.1,0,0.1l6.6,13.5c0.1,0.1,0,0.3-0.1,0.3l-1.1,0.5
	c-0.1,0.1-0.3,0-0.3-0.1l-6.6-13.5c0-0.1-0.1-0.1-0.1,0l-2.7,1.3c-0.1,0.1-0.3,0-0.3-0.1l-0.4-0.9c-0.1-0.1,0-0.3,0.1-0.3
	L237.5,286.7z"/>
<path class="st1" d="M185.6,317c0,0,30.6,0,47.5-14.6"/>
</svg>
