<?xml version="1.0" encoding="utf-8"?>
<!-- Generator: Adobe Illustrator 24.0.1, SVG Export Plug-In . SVG Version: 6.00 Build 0)  -->
<svg version="1.1" id="Layer_1" xmlns="http://www.w3.org/2000/svg" xmlns:xlink="http://www.w3.org/1999/xlink" x="0px" y="0px"
	 viewBox="0 0 390 362" style="enable-background:new 0 0 390 362;" xml:space="preserve">
<style type="text/css">
	.st0{fill-rule:evenodd;clip-rule:evenodd;}
	.st1{fill-rule:evenodd;clip-rule:evenodd;fill:#FFFFFF;}
</style>
<path class="st0" d="M164,73c0,0,7.1,4.2,5.1,8.9c-1.9,4.6-6.9,10.7-13.8,16.1c-6.9,5.4-7.1,5.5-9.1,11.7c-2.1,6.1,2,8.8,1.7,12.3
	c-0.3,3.4,0,6.3-3.5,10c-3.5,3.8-1.2,5.8,0,7.4c1.2,1.5,1.9,2.1,1.9,2.1s-2.1,3,0,5.4s0.3,3.4,0.4,5.4c0.1,1.9,0.4,1,1.9,6.7
	s1.1,5.7,2.4,7.4c1.3,1.7,4.8,1.7,8.9,2c4.1,0.3,4.4,1.3,4.8,2.5c0.3,1.2,1.5,3.4-0.7,6.8c-2.2,3.5-6.2,8.7-9.3,14.6
	c-3.1,5.9-4.1,12.9-2.7,18.4c1.5,5.5,3.3,7.7,4.8,7.6c1.5-0.1,2.2-0.6,1.5-5.7c-0.8-5.1,2-9.6,7.4-14.9c5.4-5.3,13.4-10.9,16.9-17.5
	c3.5-6.5,6.8-14.7,2.4-25.4c-4.4-10.7-8.5-9.8-13.5-15.8c-5-6-6.8-13-2.7-20.6c4.1-7.6,9.5-7.1,13.7-14.6c4.3-7.5,4.2-12.7,0.2-19.3
	c-4-6.5-5.1-9.2-6.9-9.7c-1.9-0.5-0.8-0.2-2.1-0.5c-1.2-0.3-7.6-6-9.4-4.5C162.7,71.3,164,73,164,73"/>
<path class="st0" d="M185.7,114.7c0,0,1.5,2,0.8,4.7c-0.8,2.7-3.7,3.7-4.9,5.1c-1.2,1.4-0.4,2.5-1.1,3.8c-0.7,1.3-1.8,6.4,0.1,9.4
	c1.9,3.1,2.2,5.7,10.8,13.4c8.5,7.7,4.2,17.7,0.4,24.1c-3.8,6.4-3.4,5.3-3,6.3c0.4,1,1.9,1,3.2-1.2c1.3-2.2,10.8-13.8,11.6-15.3
	c0.8-1.5,6.5-8.3,3-16c-3.4-7.6-8.2-7.7-11.5-10.4c-3.4-2.7-5.8-4-6.1-7.9c-0.3-3.9,0.6-6.2,2.1-8.4c1.5-2.2,0.3-3.4-1.1-5.4
	c-1.4-2-1.7-4.1-3.2-3.8C185.2,113.4,185.7,114.7,185.7,114.7"/>
<path class="st0" d="M80.1,228c0,0-0.1-8.2,5.1-11.7c5.2-3.5,11.2,0.4,11.2,0.4s-8-1.9-11.8,2.9C80.8,224.4,80.1,228,80.1,228
	 M135.8,186.4c0,0-21.8,0.3-24.2,16.5c-2.4,16.2,29.9,20.7,48.9,17c19.1-3.7,19.8-2.8,43.1-12.3c23.3-9.5,19.8-7.9,16.8-1.8
	c-3,6.2-25.6,22.5-41.6,25.1c-15.9,2.6-44.6,4-50.4,2.8c-5.8-1.2-7.2-3.1-8.7-2.2s-4.7,6.2-4.5,12.1c0.2,5.9,0.9,8.9,1.7,11.3
	c0.8,2.4,1.6,6.7-0.8,6.3c-2.4-0.4-0.7-0.8-2.4-2.1c-1.7-1.3-2.8-2.9-2.5-5.3s0.4-4.3-0.7-5.5c-1.1-1.2-1.7-0.9-1.5-2.6
	c0.1-1.7,0.5-1-0.8-1.9c-1.3-0.9-0.4-2.3,0-2.6s1.5-4.5,1.1-5.4c-0.4-0.9-0.2-1.7-1.4-0.4c-1.1,1.3-2.9-1.1-0.6-3.7
	c2.4-2.7,0.7-3.4,0.1-4c-0.6-0.6-0.3-2.9-1-3.3c-0.7-0.5-3.7-1.2-3-2.6c0.7-1.4,1.8-1.3,2.9-0.6c1.1,0.7,5,3.2,6.2,3.4
	c1.2,0.2,1.8-1.3,2.4-1.1c0.6,0.1,1.4,0.9,1,1.8c-0.4,0.9,0.9,1.1,2.1,1.4c1.2,0.2,1.2-0.3,2.5-1.6c1.3-1.3,1.9-1.4,2.7-0.8
	c0.8,0.6-0.5,2.4-0.1,3c0.4,0.7,3.7,2.1,6.8,1.9c3.1-0.2,3.5-0.1,5.2,0.9s3.7,1.1,7.2,1c3.6-0.1,5-0.1,5.9,0.5
	c0.9,0.6,11,0.2,15.6-0.4c4.6-0.6,6-0.6,6-0.6s0.4-3.6,3.3-2.6c2.9,1,8.2-4.4,9.4-4.7s-7.7-0.1-12.9,0.8c-5.1,0.9-5.4,1.4-7.3,1.8
	c-1.9,0.4-1.8-1.1-7-0.7c-5.2,0.3-4.6,1-6.3,0.7c-1.7-0.4-1.5-1.1-4.8,0c-3.3,1.2-3.2-0.9-3.2-0.9s-0.8-0.4-1.4-0.7
	c-0.6-0.3-9.9-0.3-17.4-4.9c-7.5-4.6-9.4-6.3-11.2-7.2s-2.6-4.9-2.9-6.4c-0.4-1.5,1.7-8.8,1.7-8.8s-7,4.4-8.3,14.2
	c-1.3,9.9,1.6,27.9,4.8,36.9c3.2,8.9,9.5,23.9,13.6,29.3c4.1,5.4,5,5.9,5,5.9s-0.8-2.9,0.2-3.4c1-0.4,2-0.1,2.4,2.2
	c0.4,2.2-0.7,2.7,0.8,3.5c1.5,0.8,0.9,1,1.6,2.6c0.7,1.6,1.5,4,4.5,5.3c3,1.3,5.7,3.8,1.8,5c-3.9,1.2-8.3-7.7-11-10.9
	c-2.7-3.2-7.7-10-7.7-10l-2.1-2.7c0,0-2,3.6-5.3,4.5c-3.4,0.9-4.8,2.7-6.3,4.3c-1.6,1.6-2.6-1.8-2.6-1.8s-0.6-1.2-0.4-2.5
	c0.2-1.3,0.4-1.9,2.6-3.6c2.1-1.8,4-5.4,1.3-10.3c-2.7-4.9-8.9-10.8-12.5-12.5c-3.6-1.7-3.8-1.1-5.6-3c-1.8-1.9-9.4-7.4-9.4-16.6
	c0-9.1,1.7-14.2,5.2-17.1c3.5-2.9,8-3.7,9.1-3.4c1,0.3,6.3,1,7.1,3.7c0.8,2.6-2.6-8.2,4.9-16.8c7.5-8.6,12.8-12.4,20.6-13.8
	C131.8,184.1,139.2,182.3,135.8,186.4z"/>
<path class="st1" d="M99.3,227.9c0,0-9.1-7.9-12.4,6.8s21.2,24.4,21.2,24.4S102.1,248.1,99.3,227.9"/>
<path class="st0" d="M192.9,108.6c0,0,0.1,2.8-0.3,3.3c-0.4,0.5,0,1.3,1.3,1.4c1.2,0.2,3.2-0.5,2.6-3.8
	C195.9,106.3,193.7,106,192.9,108.6"/>
<path class="st0" d="M184.8,192.3c-0.5,0.9-1.3,2.9-1,4.2c0.3,1.6,2,1.3,3.4-1.3C189.5,191,185.9,189.9,184.8,192.3"/>
<path d="M312.2,250.2C312.2,250.3,312.2,250.3,312.2,250.2l2.2,0.1c0.7,0,1.3-0.3,1.7-0.8c0.4-0.5,0.6-1.3,0.7-2.2v-7.7
	c0-0.9-0.2-1.7-0.6-2.2c-0.4-0.5-1-0.8-1.7-0.8h-2.1c-0.1,0-0.1,0-0.1,0.1V250.2z M310.7,251.8c-0.2,0-0.2-0.1-0.2-0.2v-16.3
	c0-0.2,0.1-0.2,0.2-0.2h3.7c1.2,0,2.2,0.4,3,1.2c0.7,0.8,1.1,1.9,1.1,3.3v7.9c0,1.4-0.4,2.4-1.1,3.3c-0.7,0.8-1.7,1.2-3,1.2H310.7z
	 M303.2,250.5c0.7,0,1.3-0.2,1.8-0.7c0.5-0.5,0.7-1.1,0.7-1.9v-9c0-0.8-0.2-1.4-0.7-1.9c-0.5-0.5-1.1-0.7-1.8-0.7
	c-0.7,0-1.3,0.2-1.8,0.7c-0.4,0.5-0.7,1.1-0.7,1.9v9c0,0.8,0.2,1.4,0.7,1.9C301.9,250.3,302.5,250.5,303.2,250.5z M303.2,252
	c-1.2,0-2.2-0.4-3-1.2c-0.8-0.8-1.1-1.8-1.1-3V239c0-1.3,0.4-2.3,1.1-3c0.8-0.8,1.8-1.2,3-1.2c1.2,0,2.3,0.4,3,1.2
	c0.8,0.8,1.2,1.8,1.2,3v8.8c0,1.2-0.4,2.3-1.2,3C305.5,251.6,304.5,252,303.2,252z M292.3,250.5c0.7,0,1.3-0.2,1.8-0.7
	c0.5-0.5,0.7-1.1,0.7-1.9v-9c0-0.8-0.2-1.4-0.7-1.9c-0.5-0.5-1.1-0.7-1.8-0.7c-0.7,0-1.3,0.2-1.8,0.7c-0.4,0.5-0.7,1.1-0.7,1.9v9
	c0,0.8,0.2,1.4,0.7,1.9C291,250.3,291.6,250.5,292.3,250.5z M292.3,252c-1.2,0-2.2-0.4-3-1.2c-0.8-0.8-1.1-1.8-1.1-3V239
	c0-1.3,0.4-2.3,1.1-3c0.8-0.8,1.8-1.2,3-1.2c1.2,0,2.3,0.4,3,1.2c0.8,0.8,1.2,1.8,1.2,3v8.8c0,1.2-0.4,2.3-1.2,3
	C294.6,251.6,293.6,252,292.3,252z M283.4,235.2c0-0.1,0.1-0.2,0.3-0.2h1.2c0.2,0,0.2,0.1,0.2,0.2v16.3c0,0.2-0.1,0.2-0.2,0.2h-1.2
	c-0.2,0-0.2-0.1-0.2-0.2v-12.9c0,0,0-0.1,0-0.1c0,0-0.1,0-0.1,0l-2.5,5.2c0,0.1-0.1,0.2-0.2,0.2c-0.1,0-0.2-0.1-0.3-0.2l-2.5-5.2
	c0,0-0.1,0-0.1,0c0,0,0,0,0,0.1v12.8c0,0.2-0.1,0.2-0.2,0.2h-1.2c-0.2,0-0.2-0.1-0.2-0.2v-16.3c0-0.2,0.1-0.2,0.2-0.2h1.2
	c0.1,0,0.2,0.1,0.3,0.2l2.7,5.5c0,0,0,0,0.1,0c0,0,0.1,0,0.1,0L283.4,235.2z M268.6,236.2c0,0.2-0.1,0.2-0.2,0.2h-5.6
	c-0.1,0-0.1,0-0.1,0.1v6c0,0.1,0,0.1,0.1,0.1h3.5c0.2,0,0.2,0.1,0.2,0.2v1c0,0.2-0.1,0.2-0.2,0.2h-3.5c-0.1,0-0.1,0-0.1,0.1v6
	c0,0.1,0,0.1,0.1,0.1h5.6c0.2,0,0.2,0.1,0.2,0.2v1c0,0.2-0.1,0.2-0.2,0.2h-7.1c-0.2,0-0.2-0.1-0.2-0.2v-16.3c0-0.2,0.1-0.2,0.2-0.2
	h7.1c0.2,0,0.2,0.1,0.2,0.2V236.2z M256,235.2c0-0.2,0.1-0.2,0.2-0.2h1.2c0.2,0,0.2,0.1,0.2,0.2v16.3c0,0.2-0.1,0.2-0.2,0.2h-1.2
	c-0.2,0-0.2-0.1-0.2-0.2v-7.3c0-0.1,0-0.1-0.1-0.1h-4.3c-0.1,0-0.1,0-0.1,0.1v7.3c0,0.2-0.1,0.2-0.2,0.2h-1.2
	c-0.2,0-0.2-0.1-0.2-0.2v-16.3c0-0.2,0.1-0.2,0.2-0.2h1.2c0.2,0,0.2,0.1,0.2,0.2v7.3c0,0.1,0,0.1,0.1,0.1h4.3c0.1,0,0.1,0,0.1-0.1
	V235.2z M247,235c0.2,0,0.2,0.1,0.2,0.2v1c0,0.2-0.1,0.2-0.2,0.2h-3.2c-0.1,0-0.1,0-0.1,0.1v15c0,0.2-0.1,0.2-0.2,0.2h-1.2
	c-0.2,0-0.2-0.1-0.2-0.2v-15c0-0.1,0-0.1-0.1-0.1h-3c-0.2,0-0.2-0.1-0.2-0.2v-1c0-0.2,0.1-0.2,0.2-0.2H247z M232.7,236.2
	c0,0.2-0.1,0.2-0.2,0.2H227c-0.1,0-0.1,0-0.1,0.1v6c0,0.1,0,0.1,0.1,0.1h3.5c0.2,0,0.2,0.1,0.2,0.2v1c0,0.2-0.1,0.2-0.2,0.2H227
	c-0.1,0-0.1,0-0.1,0.1v7.3c0,0.2-0.1,0.2-0.2,0.2h-1.2c-0.2,0-0.2-0.1-0.2-0.2v-16.3c0-0.2,0.1-0.2,0.2-0.2h7.1
	c0.2,0,0.2,0.1,0.2,0.2V236.2z M218,250.5c0.7,0,1.3-0.2,1.8-0.7c0.5-0.5,0.7-1.1,0.7-1.9v-9c0-0.8-0.2-1.4-0.7-1.9
	c-0.5-0.5-1.1-0.7-1.8-0.7c-0.7,0-1.3,0.2-1.8,0.7c-0.4,0.5-0.7,1.1-0.7,1.9v9c0,0.8,0.2,1.4,0.7,1.9
	C216.6,250.3,217.2,250.5,218,250.5z M218,252c-1.2,0-2.2-0.4-3-1.2c-0.8-0.8-1.1-1.8-1.1-3V239c0-1.3,0.4-2.3,1.1-3
	c0.8-0.8,1.8-1.2,3-1.2c1.2,0,2.3,0.4,3,1.2c0.8,0.8,1.2,1.8,1.2,3v8.8c0,1.2-0.4,2.3-1.2,3C220.2,251.6,219.2,252,218,252z
	 M206.7,236.2c0,0.2-0.1,0.2-0.2,0.2h-5.6c-0.1,0-0.1,0-0.1,0.1v6c0,0.1,0,0.1,0.1,0.1h3.5c0.2,0,0.2,0.1,0.2,0.2v1
	c0,0.2-0.1,0.2-0.2,0.2h-3.5c-0.1,0-0.1,0-0.1,0.1v6c0,0.1,0,0.1,0.1,0.1h5.6c0.2,0,0.2,0.1,0.2,0.2v1c0,0.2-0.1,0.2-0.2,0.2h-7.1
	c-0.2,0-0.2-0.1-0.2-0.2v-16.3c0-0.2,0.1-0.2,0.2-0.2h7.1c0.2,0,0.2,0.1,0.2,0.2V236.2z M196.4,235c0.2,0,0.2,0.1,0.2,0.2v1
	c0,0.2-0.1,0.2-0.2,0.2h-3.2c-0.1,0-0.1,0-0.1,0.1v15c0,0.2-0.1,0.2-0.2,0.2h-1.2c-0.2,0-0.2-0.1-0.2-0.2v-15c0-0.1,0-0.1-0.1-0.1
	h-3c-0.2,0-0.2-0.1-0.2-0.2v-1c0-0.2,0.1-0.2,0.2-0.2H196.4z M182.6,252c-1.2,0-2.1-0.4-2.9-1.2c-0.7-0.8-1.1-1.8-1.1-3.1v-0.6
	c0-0.2,0.1-0.2,0.2-0.2h1.2c0.2,0,0.2,0.1,0.2,0.2v0.5c0,0.8,0.2,1.5,0.6,2.1c0.4,0.5,1,0.8,1.7,0.8c0.7,0,1.2-0.2,1.7-0.7
	c0.4-0.5,0.7-1.2,0.7-2c0-0.5-0.1-1-0.3-1.4c-0.2-0.4-0.5-0.7-0.8-1c-0.3-0.3-0.9-0.7-1.7-1.4c-0.8-0.6-1.4-1.1-1.9-1.5
	c-0.5-0.4-0.8-0.9-1.1-1.5c-0.3-0.6-0.4-1.3-0.4-2.1c0-1.2,0.4-2.2,1.1-3c0.7-0.7,1.7-1.1,2.8-1.1c1.2,0,2.2,0.4,2.9,1.2
	c0.7,0.8,1.1,1.8,1.1,3.2v0.6c0,0.2-0.1,0.2-0.2,0.2H185c-0.2,0-0.2-0.1-0.2-0.2v-0.6c0-0.8-0.2-1.5-0.6-2.1c-0.4-0.5-1-0.8-1.7-0.8
	c-0.6,0-1.2,0.2-1.6,0.7c-0.4,0.5-0.6,1.1-0.6,1.9c0,0.5,0.1,0.9,0.3,1.3c0.2,0.4,0.5,0.7,0.8,1.1c0.4,0.3,0.9,0.8,1.6,1.3
	c1,0.7,1.7,1.3,2.1,1.7c0.5,0.4,0.8,0.9,1.1,1.4c0.3,0.5,0.4,1.1,0.4,1.9c0,1.3-0.4,2.4-1.1,3.2C184.8,251.6,183.8,252,182.6,252z
	 M171.2,247C171.2,247.1,171.2,247.1,171.2,247l3.9,0.1c0,0,0.1,0,0.1-0.1l-1.9-9.4c0,0,0-0.1,0-0.1c0,0,0,0,0,0.1L171.2,247z
	 M176.3,251.8c-0.1,0-0.2-0.1-0.3-0.2l-0.6-3c0,0,0-0.1,0-0.1c0,0-0.1,0-0.1,0H171c0,0-0.1,0-0.1,0c0,0,0,0,0,0.1l-0.6,3
	c0,0.1-0.1,0.2-0.3,0.2h-1.2c-0.1,0-0.1,0-0.2-0.1c0,0-0.1-0.1,0-0.2l3.6-16.3c0-0.1,0.1-0.2,0.3-0.2h1.4c0.2,0,0.2,0.1,0.3,0.2
	l3.6,16.3v0c0,0.1-0.1,0.2-0.2,0.2H176.3z"/>
<path class="st0" d="M159.6,232.7c0,0,3.7-1.6,3.5,0.6c-0.2,2.2-1.1,14-1,16.3c0.1,2.3,0.1,2.7,1.8,2.7c1.7,0,1.5-2.9,1.7-5.4
	c0.2-2.5,0.8-6.1,0.9-7.6c0.1-1.5-0.3-2.2,0.8-3.9c1.1-1.7,1.8-2.6,2.3-3.3c0.5-0.7,1.9-1.1,1.9-1.1L159.6,232.7z"/>
<path class="st0" d="M176,251.1l0.1,0.7l3.2,9.1c0,0,1,0.8,0.7-0.6c-0.3-1.4-2.6-10.2-2.6-10.2l-1.6,0.1L176,251.1z"/>
<path d="M306.3,260.8c0-0.5-0.1-0.8-0.4-1.1c-0.3-0.3-0.6-0.4-1-0.4c-0.4,0-0.7,0.1-1,0.4c-0.2,0.3-0.4,0.7-0.4,1.1v3.3
	c0,0.4,0.1,0.8,0.4,1.1c0.2,0.3,0.6,0.4,1,0.4c0.4,0,0.8-0.1,1-0.4c0.3-0.3,0.4-0.6,0.4-1.1V260.8z M305.2,258.2
	c0.7,0,1.2,0.2,1.6,0.7c0.4,0.4,0.6,1,0.6,1.8v3.5c0,0.7-0.2,1.3-0.6,1.8s-1,0.7-1.6,0.7c-0.3,0-0.6-0.1-0.8-0.2
	c-0.3-0.1-0.5-0.3-0.7-0.5c0,0,0,0-0.1,0c0,0,0,0,0,0v0.4c0,0.1-0.1,0.2-0.2,0.2h-0.8c-0.1,0-0.2-0.1-0.2-0.2v-10.9
	c0-0.1,0.1-0.2,0.2-0.2h0.8c0.1,0,0.2,0.1,0.2,0.2v3.5c0,0,0,0,0,0c0,0,0,0,0.1,0c0.2-0.2,0.4-0.4,0.7-0.5
	C304.6,258.3,304.9,258.2,305.2,258.2z M299.3,258.5c0-0.1,0.1-0.2,0.2-0.2h0.8c0.1,0,0.2,0.1,0.2,0.2v7.8c0,0.1-0.1,0.2-0.2,0.2
	h-0.8c-0.1,0-0.2-0.1-0.2-0.2v-0.5c0,0,0,0,0,0c0,0,0,0-0.1,0c-0.3,0.6-0.9,0.8-1.6,0.8c-0.6,0-1.2-0.2-1.5-0.6
	c-0.4-0.4-0.6-1-0.6-1.8v-5.7c0-0.1,0.1-0.2,0.2-0.2h0.8c0.1,0,0.2,0.1,0.2,0.2v5.5c0,0.5,0.1,0.9,0.3,1.2c0.2,0.3,0.5,0.4,1,0.4
	c0.4,0,0.8-0.2,1-0.5c0.2-0.3,0.4-0.7,0.4-1.3V258.5z M292.8,266.5c-0.1,0-0.2-0.1-0.2-0.2v-10.9c0-0.1,0.1-0.2,0.2-0.2h0.8
	c0.1,0,0.2,0.1,0.2,0.2v10.9c0,0.1-0.1,0.2-0.2,0.2H292.8z M288.2,266.6c-0.8,0-1.5-0.3-2-0.8c-0.5-0.5-0.7-1.2-0.7-2v-6
	c0-0.8,0.2-1.5,0.7-2c0.5-0.5,1.2-0.8,2-0.8c0.8,0,1.5,0.2,2,0.7c0.5,0.5,0.7,1.2,0.7,2v0.3c0,0.1-0.1,0.2-0.2,0.2l-0.8,0
	c-0.1,0-0.2-0.1-0.2-0.2v-0.4c0-0.5-0.1-0.9-0.4-1.2c-0.3-0.3-0.7-0.5-1.2-0.5c-0.5,0-0.9,0.2-1.1,0.5c-0.3,0.3-0.4,0.7-0.4,1.2v6.1
	c0,0.5,0.1,0.9,0.4,1.2c0.3,0.3,0.7,0.5,1.1,0.5c0.5,0,0.9-0.2,1.2-0.5c0.3-0.3,0.4-0.7,0.4-1.2v-0.4c0-0.1,0.1-0.2,0.2-0.2l0.8,0
	c0.1,0,0.2,0.1,0.2,0.2v0.3c0,0.8-0.3,1.5-0.8,2C289.7,266.3,289,266.6,288.2,266.6z M278.4,258.2c0.7,0,1.2,0.2,1.5,0.7
	c0.4,0.4,0.5,1.1,0.5,1.9v5.5c0,0.1-0.1,0.2-0.2,0.2h-0.8c-0.1,0-0.2-0.1-0.2-0.2v-5.4c0-0.5-0.1-0.9-0.3-1.2
	c-0.2-0.3-0.5-0.4-1-0.4c-0.4,0-0.8,0.2-1,0.5c-0.2,0.3-0.4,0.7-0.4,1.3v5.3c0,0.1-0.1,0.2-0.2,0.2h-0.8c-0.1,0-0.2-0.1-0.2-0.2
	v-7.8c0-0.1,0.1-0.2,0.2-0.2h0.8c0.1,0,0.2,0.1,0.2,0.2v0.5c0,0,0,0,0,0c0,0,0,0,0,0c0.2-0.3,0.4-0.5,0.7-0.6
	C277.8,258.3,278.1,258.2,278.4,258.2z M271.2,265.6c0.4,0,0.7-0.1,1-0.4c0.3-0.3,0.4-0.6,0.4-1.1v-3.3c0-0.5-0.1-0.8-0.4-1.1
	c-0.3-0.3-0.6-0.4-1-0.4c-0.4,0-0.7,0.1-1,0.4c-0.3,0.3-0.4,0.7-0.4,1.1v3.3c0,0.5,0.1,0.8,0.4,1.1
	C270.5,265.4,270.8,265.6,271.2,265.6z M271.2,266.6c-0.8,0-1.4-0.2-1.8-0.7c-0.5-0.4-0.7-1-0.7-1.8v-3.4c0-0.7,0.2-1.3,0.7-1.8
	c0.5-0.5,1.1-0.7,1.8-0.7c0.8,0,1.4,0.2,1.8,0.7c0.5,0.5,0.7,1.1,0.7,1.8v3.4c0,0.7-0.2,1.3-0.7,1.8
	C272.6,266.4,272,266.6,271.2,266.6z M265.8,266.5c-0.1,0-0.2-0.1-0.2-0.2v-7.8c0-0.1,0.1-0.2,0.2-0.2h0.8c0.1,0,0.2,0.1,0.2,0.2
	v7.8c0,0.1-0.1,0.2-0.2,0.2H265.8z M266.2,256.9c-0.3,0-0.5-0.1-0.6-0.3c-0.2-0.2-0.2-0.4-0.2-0.6c0-0.3,0.1-0.5,0.2-0.7
	c0.2-0.2,0.4-0.2,0.6-0.2c0.3,0,0.5,0.1,0.6,0.2c0.2,0.2,0.2,0.4,0.2,0.7c0,0.3-0.1,0.5-0.2,0.6
	C266.7,256.8,266.5,256.9,266.2,256.9z M261.6,258.2c0.7,0,1.2,0.2,1.5,0.7c0.4,0.4,0.5,1.1,0.5,1.9v5.5c0,0.1-0.1,0.2-0.2,0.2h-0.8
	c-0.1,0-0.2-0.1-0.2-0.2v-5.4c0-0.5-0.1-0.9-0.3-1.2c-0.2-0.3-0.5-0.4-1-0.4c-0.4,0-0.8,0.2-1,0.5c-0.2,0.3-0.4,0.7-0.4,1.3v5.3
	c0,0.1-0.1,0.2-0.2,0.2h-0.8c-0.1,0-0.2-0.1-0.2-0.2v-10.9c0-0.1,0.1-0.2,0.2-0.2h0.8c0.1,0,0.2,0.1,0.2,0.2v3.6c0,0,0,0,0,0
	c0,0,0,0,0,0c0.2-0.3,0.4-0.5,0.7-0.6C261,258.3,261.3,258.2,261.6,258.2z M254.8,266.5c-0.7,0-1.3-0.2-1.8-0.6
	c-0.4-0.4-0.7-0.9-0.7-1.5v-0.1c0-0.1,0.1-0.2,0.2-0.2h0.8c0.1,0,0.2,0.1,0.2,0.2v0.1c0,0.3,0.1,0.6,0.4,0.9c0.3,0.2,0.6,0.4,1,0.4
	c0.4,0,0.7-0.1,0.9-0.4c0.2-0.2,0.4-0.5,0.4-0.9c0-0.3-0.1-0.5-0.2-0.7c-0.1-0.2-0.3-0.3-0.5-0.4c-0.2-0.1-0.5-0.2-0.9-0.4
	c-0.4-0.2-0.8-0.3-1-0.5s-0.5-0.4-0.7-0.7c-0.2-0.3-0.3-0.7-0.3-1.2c0-0.7,0.2-1.2,0.6-1.6c0.4-0.4,1-0.6,1.7-0.6
	c0.7,0,1.3,0.2,1.7,0.6c0.4,0.4,0.6,0.9,0.6,1.6v0c0,0.1-0.1,0.2-0.2,0.2h-0.7c-0.1,0-0.2-0.1-0.2-0.2v-0.1c0-0.4-0.1-0.7-0.4-0.9
	c-0.2-0.2-0.6-0.4-0.9-0.4c-0.4,0-0.7,0.1-0.9,0.4c-0.2,0.2-0.3,0.5-0.3,0.9c0,0.3,0.1,0.5,0.2,0.6c0.1,0.2,0.3,0.3,0.5,0.4
	c0.2,0.1,0.5,0.2,0.9,0.4c0.4,0.2,0.8,0.4,1.1,0.5c0.3,0.2,0.5,0.4,0.7,0.7c0.2,0.3,0.3,0.7,0.3,1.2c0,0.7-0.2,1.2-0.7,1.6
	C256.2,266.3,255.6,266.5,254.8,266.5z M248.2,265.6c0.4,0,0.8-0.1,1.1-0.4c0.3-0.3,0.5-0.7,0.5-1.2v-1.3c0,0,0-0.1-0.1-0.1h-1.1
	c-0.5,0-0.9,0.1-1.2,0.4c-0.3,0.3-0.4,0.7-0.4,1.2c0,0.5,0.1,0.8,0.3,1.1C247.5,265.5,247.8,265.6,248.2,265.6z M248.5,258.2
	c0.7,0,1.3,0.2,1.8,0.7c0.4,0.5,0.7,1.1,0.7,1.9v5.4c0,0.1-0.1,0.2-0.2,0.2H250c-0.1,0-0.2-0.1-0.2-0.2v-0.5c0,0,0,0,0,0
	c0,0,0,0-0.1,0c-0.4,0.5-1,0.8-1.8,0.8c-0.6,0-1.1-0.2-1.5-0.5c-0.4-0.3-0.6-0.9-0.6-1.8c0-0.9,0.3-1.6,0.8-2
	c0.5-0.4,1.2-0.6,2.1-0.6h1.1c0,0,0.1,0,0.1-0.1V261c0-0.5-0.1-1-0.4-1.3c-0.2-0.3-0.6-0.5-1-0.5c-0.3,0-0.6,0.1-0.8,0.3
	c-0.2,0.2-0.4,0.5-0.4,0.8c0,0.1-0.1,0.2-0.2,0.2l-0.9,0c-0.1,0-0.1,0-0.1,0c0,0,0-0.1,0-0.1c0.1-0.6,0.3-1.1,0.8-1.5
	C247.2,258.4,247.8,258.2,248.5,258.2z M245,256.1c0,0.1-0.1,0.2-0.2,0.2h-3.7c0,0-0.1,0-0.1,0.1v4c0,0,0,0.1,0.1,0.1h2.3
	c0.1,0,0.2,0.1,0.2,0.2v0.7c0,0.1-0.1,0.2-0.2,0.2h-2.3c0,0-0.1,0-0.1,0.1v4.9c0,0.1-0.1,0.2-0.2,0.2h-0.8c-0.1,0-0.2-0.1-0.2-0.2
	v-10.9c0-0.1,0.1-0.2,0.2-0.2h4.7c0.1,0,0.2,0.1,0.2,0.2V256.1z M222.8,259.2c-0.4,0-0.7,0.1-1,0.4c-0.3,0.3-0.4,0.7-0.4,1.1v1.1
	c0,0,0,0.1,0.1,0.1h2.6c0,0,0.1,0,0.1-0.1v-1.1c0-0.5-0.1-0.8-0.4-1.1C223.5,259.4,223.2,259.2,222.8,259.2z M225.3,262.7
	c0,0.1-0.1,0.2-0.2,0.2h-3.7c0,0-0.1,0-0.1,0.1v1.2c0,0.4,0.1,0.8,0.4,1.1c0.3,0.3,0.6,0.4,1,0.4c0.3,0,0.6-0.1,0.9-0.3
	c0.2-0.2,0.4-0.5,0.5-0.8c0-0.1,0.1-0.1,0.2-0.1l0.8,0c0,0,0.1,0,0.1,0c0,0,0,0.1,0,0.1c-0.1,0.6-0.3,1.1-0.8,1.5
	c-0.4,0.4-1,0.6-1.7,0.6c-0.8,0-1.4-0.2-1.8-0.7c-0.5-0.4-0.7-1-0.7-1.8v-3.5c0-0.7,0.2-1.3,0.7-1.8c0.5-0.5,1.1-0.7,1.8-0.7
	c0.8,0,1.4,0.2,1.8,0.7c0.5,0.5,0.7,1,0.7,1.8V262.7z M216.2,259.2c-0.4,0-0.7,0.1-1,0.4c-0.3,0.3-0.4,0.7-0.4,1.1v1.1
	c0,0,0,0.1,0.1,0.1h2.6c0,0,0.1,0,0.1-0.1v-1.1c0-0.5-0.1-0.8-0.4-1.1C217,259.4,216.7,259.2,216.2,259.2z M218.8,262.7
	c0,0.1-0.1,0.2-0.2,0.2h-3.7c0,0-0.1,0-0.1,0.1v1.2c0,0.4,0.1,0.8,0.4,1.1c0.3,0.3,0.6,0.4,1,0.4c0.3,0,0.6-0.1,0.9-0.3
	c0.2-0.2,0.4-0.5,0.5-0.8c0-0.1,0.1-0.1,0.2-0.1l0.8,0c0,0,0.1,0,0.1,0c0,0,0,0.1,0,0.1c-0.1,0.6-0.3,1.1-0.8,1.5
	c-0.4,0.4-1,0.6-1.7,0.6c-0.8,0-1.4-0.2-1.8-0.7c-0.5-0.4-0.7-1-0.7-1.8v-3.5c0-0.7,0.2-1.3,0.7-1.8c0.5-0.5,1.1-0.7,1.8-0.7
	c0.8,0,1.4,0.2,1.8,0.7c0.5,0.5,0.7,1,0.7,1.8V262.7z M212,256.1c-0.4,0-0.7,0.1-0.9,0.4c-0.2,0.3-0.3,0.7-0.3,1.3v0.5
	c0,0,0,0.1,0.1,0.1h1.2c0.1,0,0.2,0.1,0.2,0.2v0.5c0,0.1-0.1,0.2-0.2,0.2H211c0,0-0.1,0-0.1,0.1v7c0,0.1-0.1,0.2-0.2,0.2H210
	c-0.1,0-0.2-0.1-0.2-0.2v-7c0,0,0-0.1-0.1-0.1h-0.6c-0.1,0-0.2-0.1-0.2-0.2v-0.5c0-0.1,0.1-0.2,0.2-0.2h0.6c0,0,0.1,0,0.1-0.1v-0.5
	c0-0.9,0.2-1.6,0.5-2c0.3-0.4,0.9-0.6,1.7-0.6h0.2c0.1,0,0.2,0.1,0.2,0.2l0,0.7c0,0.1-0.1,0.2-0.2,0.2H212z M207.6,256.1
	c-0.4,0-0.7,0.1-0.9,0.4c-0.2,0.3-0.3,0.7-0.3,1.3v0.5c0,0,0,0.1,0.1,0.1h1.2c0.1,0,0.2,0.1,0.2,0.2v0.5c0,0.1-0.1,0.2-0.2,0.2h-1.2
	c0,0-0.1,0-0.1,0.1v7c0,0.1-0.1,0.2-0.2,0.2h-0.8c-0.1,0-0.2-0.1-0.2-0.2v-7c0,0,0-0.1-0.1-0.1h-0.6c-0.1,0-0.2-0.1-0.2-0.2v-0.5
	c0-0.1,0.1-0.2,0.2-0.2h0.6c0,0,0.1,0,0.1-0.1v-0.5c0-0.9,0.2-1.6,0.5-2c0.3-0.4,0.9-0.6,1.7-0.6h0.2c0.1,0,0.2,0.1,0.2,0.2l0,0.7
	c0,0.1-0.1,0.2-0.2,0.2H207.6z M200.7,265.6c0.4,0,0.7-0.1,1-0.4c0.3-0.3,0.4-0.6,0.4-1.1v-3.3c0-0.5-0.1-0.8-0.4-1.1
	c-0.3-0.3-0.6-0.4-1-0.4c-0.4,0-0.7,0.1-1,0.4c-0.3,0.3-0.4,0.7-0.4,1.1v3.3c0,0.5,0.1,0.8,0.4,1.1
	C200,265.4,200.3,265.6,200.7,265.6z M200.7,266.6c-0.8,0-1.4-0.2-1.8-0.7c-0.5-0.4-0.7-1-0.7-1.8v-3.4c0-0.7,0.2-1.3,0.7-1.8
	c0.5-0.5,1.1-0.7,1.8-0.7c0.8,0,1.4,0.2,1.8,0.7c0.5,0.5,0.7,1.1,0.7,1.8v3.4c0,0.7-0.2,1.3-0.7,1.8
	C202.1,266.4,201.5,266.6,200.7,266.6z M194,266.6c-0.8,0-1.5-0.3-2-0.8c-0.5-0.5-0.7-1.2-0.7-2v-6c0-0.8,0.2-1.5,0.7-2
	c0.5-0.5,1.2-0.8,2-0.8c0.8,0,1.5,0.2,2,0.7c0.5,0.5,0.7,1.2,0.7,2v0.3c0,0.1-0.1,0.2-0.2,0.2l-0.8,0c-0.1,0-0.2-0.1-0.2-0.2v-0.4
	c0-0.5-0.1-0.9-0.4-1.2c-0.3-0.3-0.7-0.5-1.2-0.5c-0.5,0-0.9,0.2-1.1,0.5c-0.3,0.3-0.4,0.7-0.4,1.2v6.1c0,0.5,0.1,0.9,0.4,1.2
	c0.3,0.3,0.7,0.5,1.1,0.5c0.5,0,0.9-0.2,1.2-0.5c0.3-0.3,0.4-0.7,0.4-1.2v-0.4c0-0.1,0.1-0.2,0.2-0.2l0.8,0c0.1,0,0.2,0.1,0.2,0.2
	v0.3c0,0.8-0.3,1.5-0.8,2C195.5,266.3,194.9,266.6,194,266.6z"/>
<path class="st0" d="M232.8,261c0.8,0,1.4,0.6,1.4,1.4s-0.6,1.4-1.4,1.4s-1.4-0.6-1.4-1.4S232,261,232.8,261"/>
</svg>
